<?xml version="1.0" standalone="no"?>
<!DOCTYPE svg PUBLIC "-//W3C//DTD SVG 20010904//EN" "http://www.w3.org/TR/2001/REC-SVG-20010904/DTD/svg10.dtd">
<!-- Created using Krita: https://krita.org -->
<svg xmlns="http://www.w3.org/2000/svg" 
    xmlns:xlink="http://www.w3.org/1999/xlink"
    xmlns:krita="http://krita.org/namespaces/svg/krita"
    xmlns:sodipodi="http://sodipodi.sourceforge.net/DTD/sodipodi-0.dtd"
    width="360pt"
    height="360.24pt"
    viewBox="0 0 360 360.24">
<defs/>
<path id="shape0" transform="translate(173.880012601691, 60.7800010513529)" fill="none" stroke="#000000" stroke-width="0.4344" stroke-linecap="square" stroke-linejoin="bevel" d="M13.56 244.26L28.2 244.86L62.79 242.46L62.9018 235.611L50.8951 231.877L50.7254 235.25L47.0979 235.399L46.2706 228.695L46.5676 233.574L44.9978 234.02L42.6856 232.577L42.0068 227.656L41.4764 226.829C42.7981 227.559 41.0949 229.828 42.378 230.541C42.8786 230.819 38.15 230.146 38.985 230.25C39.8335 230.356 37.8166 228.458 38.0399 227.571C38.6745 227.644 35.0946 226.917 36.12 227.22C37.2484 227.553 34.067 224.981 34.29 223.815C34.293 220.613 33.8947 216.577 34.68 214.38C33.1624 215.124 32.8219 215.184 30.51 216.81C29.3902 212.552 24.5457 190.462 24.84 189C26.4954 190.295 16.1379 141.834 18.96 146.28C19.9379 140.658 19.1017 121.216 19.02 117.66C20.0956 120.387 15.6192 99.197 16.9115 103.156C18.6721 108.548 17.5565 109.064 19.2026 117.368C19.4292 113.913 20.2667 92.6617 20.6026 91.9975C20.926 98.495 20.9764 104.47 22.68 111.54C24.2619 118.104 34.7434 136.241 37.74 142.62C38.1919 144.53 40.3775 150.076 41.76 151.92C42.1779 153.803 32.2687 108 32.6517 109.859C33.4053 113.517 34.9042 117.727 37.7429 132.939C38.1853 135.31 46.4086 117.891 46.2282 110.198C45.9641 112.599 46.2228 119.546 37.98 132.9C37.5867 137.585 45.0215 163.987 45.3797 164.504C45.1259 157.615 48.7862 95.3932 48.9435 90.852C49.6111 95.6253 43.8711 82.0792 39.12 81.6C35.2575 80.4876 31.7483 81.7306 28.92 83.22C32.1452 81.7847 33.8312 79.9358 39.1006 81.3909C43.4789 84.1023 45.9598 87.8649 48.9435 90.852C50.0286 102.069 46.2945 117.376 46.7373 130.563C47.0794 140.75 45.0011 154.545 45.3797 164.504C45.7442 174.096 44.9692 173.913 45.5494 182.069C47.2327 186.901 49.4588 186.227 51.4042 189.96C51.6579 192.689 52.8266 200.237 55.6469 202.858C55.6672 203.399 49.3595 205.381 49.3677 205.912C50.1472 206.7 35.4492 213.068 34.5 214.5C35.4909 214.152 46.5127 207.537 49.5 206.34C51.6722 208.542 52.2339 209.973 53.271 211.47C56.9604 207.256 60.9631 187.543 63.1987 181.008C63.6997 181.658 64.3404 147.184 64.02 136.8C64.2698 139.827 64.5086 169.347 63.3 181.08C62.9895 184.094 65.5416 209.906 63.8351 220.889C63.5068 223.134 65.3834 194.571 63.24 181.02C60.0224 187.027 59.0218 203.024 53.25 211.41C55.556 214.059 55.9796 215.146 55.98 215.16C56.0047 216.042 59.2435 216.882 59.22 217.68C59.1937 218.572 63.5349 220.789 64.74 221.76C64.4478 223.771 64.8811 221.495 63.84 222.84C63.292 223.548 53.7194 219.466 52.26 218.34C51.9681 220.103 52.2516 221.119 52.32 223.2C51.1741 227.637 50.8069 232.003 50.8102 232.005L65.79 236.52L68.94 225.03L63.93 222.81L67.102 210.579L68.7142 198.827L70.4112 184.784L69.69 167.262L67.9081 153.261L64.3443 136.503L64.7685 131.624L65.1079 130.733L63.8351 121.187L65.1079 106.762L66.5504 93.9491L65.7443 93.3127L60.6107 92.3369L60.7804 83.1304L54.24 87L51.84 87.12L51.72 83.94L52.56 81.48L53.34 81.42L57.4288 85.0608L53.2498 81.3485L55.1802 80.6272L59.2955 80.4151L57.556 78.421L51.5739 74.8996L44.6584 72.2692L37.8702 70.1055L46.8 73.08L38.1 63.06L41.37 56.73L42.24 53.22L47.31 48.72L48.75 48.63L51.51 46.47L50.22 42.72L50.16 39.54L48.24 38.91L46.08 40.38L48.15 38.88L49.59 37.38L50.58 35.34L49.8769 34.043L52.9952 30.2246L49.4314 28.0609L47.2252 26.7457L47.355 25.44L46.305 22.215L45.105 21.045L45.33 24.57L47.205 26.7225L47.3625 25.44L46.3275 22.185L49.442 24.6138L50.1314 24.8047L46.9813 21.3893L44.2129 17.7195L44.5311 17.6452L47.4267 20.0529L49.9087 23.5213L48.2116 20.0847L44.7963 17.1679L44.4781 16.7755L45.8251 16.733L48.1374 17.4225C49.4243 18.172 50.1102 18.5574 50.1951 18.5786C50.2799 18.5998 50.6158 18.8544 51.2027 19.3423L50.3117 17.8573L48.795 16.4467L47.2252 15.4709L47.6919 15.2481L48.2222 15.1633L45.6554 14.5163L42.6962 14.4314L44.2766 13.1798L48.8586 13.2435L52.4225 14.5163L49.3147 12.6601L47.6495 12.3207L45.2312 12.2358L46.08 11.04L46.14 10.14L45.06 11.31L44.385 11.79L43.935 11.73L44.655 10.395L45.03 9.195L45.54 7.185L45.5175 6.62495L44.3084 9.80693L44.075 9.72208L44.2341 8.84173L44.2235 7.24014L43.1629 10.1676L43.3114 9.76451L42.9932 7.42045C42.7103 6.45878 42.5548 5.93906 42.5265 5.86128C42.4982 5.7835 41.8512 4.41524 40.5855 1.75652L41.6037 3.86724L41.8052 8.29019L41.4764 9.13872L41.445 9.765L40.53 12.615L41.445 9.765L41.0625 6.6075L40.365 4.5075L40.4794 6.97497L37.9126 3.11417L35.1549 0.186747L36.4277 1.92623L37.6368 4.51424L37.849 5.46884L38.7 6.75L39.315 8.67L39.645 10.815L39.435 13.095L39.63 10.77L39.3 8.595L38.67 6.735L37.815 5.445L37.29 5.055L35.955 3.09L36.75 4.995L31.05 0L34.47 3.645L34.125 3.75L31.725 2.415L32.49 3.345L34.56 4.935L36.555 6.735L34.5 4.875L31.14 2.805L29.655 2.37L21.255 2.58L24.99 3.165L29.64 3.765L33.315 6.06L29.685 3.795L21.06 3.075L24.525 3.9L27.465 5.31L20.385 5.775L26.595 6.105L21.24 6.225L20.805 6.42L17.895 6.255L16.605 5.94L15.375 5.22L17.64 6.66L20.07 7.74L22.305 7.92L25.41 8.265L22.32 7.905L20.04 7.74L15.27 9.36L18.375 8.895L16.14 10.215L14.28 11.04L10.725 11.265L8.57999 11.295L10.095 11.76L13.65 12.06L15.225 11.475L16.68 11.37L18.12 10.89L20.19 10.665L18.105 10.89L16.68 11.355L15.225 11.49L13.74 12.06L12.675 12.945L10.05 13.665L8.84999 13.86L9.68999 14.13L9.56999 14.205L8.29499 14.55L4.82999 14.655L3.20999 14.07L4.94999 14.985L6.11999 15.555L8.60999 16.05L10.35 16.29L14.1962 14.4208L17.5904 12.9571L14.5993 14.3147L10.3142 16.3618L7.02 18.255L5.565 18.84L7.44 18.87L8.415 18.285L7.44 18.915L6.585 19.89L4.455 21.48L3.015 22.305L1.875 22.83L0.869997 22.875L4.57606 23.0228L2.59499 24.24L2.09999 24.54L3.53999 24.27L5.72999 23.055L7.635 20.625L9.165 19.14L7.665 20.61L5.715 23.085L5.595 24.06L4.065 26.79L2.265 28.41L4.035 26.895L4.02 27.87L2.43 30.9L0 33.765L2.415 32.64L4.62 30.975L4.755 31.41L4.32 32.55L5.595 31.2L6.375 30.045L6.51 30.75L5.99205 32.2505L5.05499 34.7925L6.11999 33.6188L6.11999 34.0218L4.69274 36.4825L2.82598 38.7736L5.05337 37.5008L4.84123 38.116L5.71098 37.5856L6.98377 36.3977L7.17469 36.8007L5.60491 40.7888L4.16241 42.8465L6.11999 41.2767L7.72623 39.516L7.81108 38.519L8.23535 38.519L8.40505 40.9797L9.23237 43.9496L10.1445 44.9042L11.6507 45.6254L10.4839 43.8223L10.187 42.0616L11.0567 43.6314L10.6749 41.3616L10.7809 40.6828L10.8021 41.3828L13.4962 43.8223L13.9417 44.5011L14.366 46.2194L14.4296 44.4587L14.2599 43.7799L15.2781 44.9678L15.957 46.6649L15.9994 49.8469L15.7236 51.1621L16.4661 50.1438L16.7631 48.9559L16.7206 51.3106L16.0206 53.4107L14.2599 55.7441L16.3812 54.0046L17.3995 52.3288L17.3995 54.1107L18.0358 52.6046L18.4177 50.1863L18.5874 49.1256L18.4389 49.9741L19.3935 52.8379L19.6905 54.3865L19.8178 56.1896L19.6693 58.2897L18.0571 60.7717L17.9722 62.3626L19.2026 60.7292L20.3693 60.305L21.0481 58.7776L22.0027 59.414L22.2997 58.8625L22.4694 55.8502L21.2815 53.0288L22.4482 55.7653L25.418 59.3079L26.3514 59.6049L27.6879 59.3928L26.1181 59.011L24.9726 58.1412L23.1058 55.532L22.6179 53.5592L23.4664 54.8107L23.7422 54.8956L22.9997 51.7348L22.9361 49.5923L23.8907 50.0802L26.2454 53.347L24.3362 49.3377L23.8907 47.1316L24.8453 46.9406L25.8211 48.8923L26.5211 50.6105L26.5848 48.7013L26.2666 46.5164L25.5241 44.9042L25.9272 44.0557L26.6908 44.5436L27.3909 44.8193L24.9938 41.5525L25.9696 42.3374L28.3454 42.4647L28.9606 42.4859L30.7425 45.3921L32.9275 51.4378L30.785 45.4557L31.6335 46.2406L40.0339 48.7862L47.3525 48.6801L39.9915 48.7862L31.6123 46.2406L30.7425 45.4345L28.9182 42.4434L28.7273 41.2131L28.1121 40.4706L25.89 40.365L23.61 38.625L23.385 37.77L23.235 36.825L22.485 36.6L23.235 36.81L23.595 38.625L24.975 39.675L25.0125 38.9175L26.1225 38.4L26.955 38.76L27.1725 39.195L27.165 39.9075L26.88 40.395L27.165 39.9075L27.1725 39.1875L26.94 38.7525L25.65 37.575L24.525 37.62L24.765 35.535L24.345 35.04L23.43 34.545L22.845 34.695L22.455 35.175L22.83 34.725L23.4 34.53L24.36 35.055L24.75 35.52L24.75 34.32L22.2148 32.1763L21.43 32.346L21.0693 33.0672L21.43 32.3248L22.1936 32.1975L23.2967 33.1096L22.4906 33.7885L21.3663 33.937L21.5997 35.0613L21.3663 33.937L22.4482 33.7885L23.2967 33.1309L24.7604 34.34L24.7392 35.5067L24.5271 37.5856L25.6514 37.5856L26.9348 38.7523L27.1575 39.1554L27.1681 39.8979L26.8817 40.407L28.0909 40.4812L28.7273 41.2131L28.9182 42.4647L25.98 42.33L24.99 41.535L21.3 37.77L21.09 36.63L20.1 33.36L19.95 31.65L21.06 30.6L22.35 30.78L23.91 31.35L24.93 31.86L25.83 32.7L29.07 37.92L30.09 38.91L28.89 34.68L27.72 30.3L28.26 30L27.72 29.46L28.05 28.38L29.67 26.1L29.22 25.68L29.88 25.53L29.16 24.75L28.44 24.75L27.525 24.105L27.3 23.1L26.595 23.01L27.45 22.11L27.135 21.6L28.035 21.15L29.16 24.705L33.076 31.158L29.9789 23.5001L29.0455 19.8726L31.6547 18.0483L33.4791 16.8391L34.2852 19.3211L35.261 21.4L36.8095 23.8607L38.146 25.3244L38.175 25.755L36.825 27.165L40.56 25.005L42.15 24.15L42.9613 24.1789L43.4068 24.7728L42.5583 25.7062L41.0522 26.279L39.0157 27.4881L39.6097 27.1487L40.6915 27.87L42.0492 28.3791L43.1523 28.5276L42.795 28.17L42.87 27.27L42.84 26.04L42.54 25.695L41.94 25.92L42.105 26.94L42.51 27.525L42.81 27.615L42.855 26.055L42.57 25.71L43.395 24.795L44.175 26.085L43.905 24.54L41.145 19.125L38.19 14.79L38.85 14.88L39.9 15.69L40.47 15.15L42.06 15.69L44.52 19.98L45.105 21.06L42.0598 15.6512L40.4582 15.1208L39.9067 15.6724L38.8566 14.8663L38.1354 14.7708L41.1582 19.1514L43.8629 24.4759L44.1599 26.0032L42.0916 22.694L37.0853 15.4603L36.2792 15.3118L34.9852 15.8421L34.4549 15.9482L34.37 16.5209L35.961 21.2515L37.0429 23.394L38.146 25.3244L38.7824 25.388L41.9855 23.4895L42.5477 23.4576L41.9855 23.4788L38.8036 25.3668L38.1566 25.3244L36.84 23.88L35.085 21.06L33.435 16.8L29.055 19.83L33.1184 31.1368L29.835 25.5375L29.2576 25.6426L29.6395 26.0987L28.1015 28.3367L27.6985 29.4504L28.2606 30.0125L27.7303 30.2671L30.0849 38.9008L25.8 32.7L24.99 31.89L22.32 30.75L21.18 30.6L19.92 31.62L20.04 33.105L21.255 37.665L25.005 41.595L27.39 44.775L25.905 44.04L25.53 44.85L26.265 46.695L26.58 49.44L26.49 50.52L24.81 46.89L23.88 47.145L24.36 49.41L26.175 53.205L23.985 50.1L22.905 49.545L22.98 51.645L23.715 54.825L23.445 54.855L22.62 53.535L23.0846 55.479L25.0574 58.173L25.9908 58.9155L27.5394 59.3398L26.3938 59.6155L25.4074 59.3186L22.4376 55.7866L22.2891 58.8094L22.0027 59.3504L21.0375 58.8094L20.4011 60.2731L19.1814 60.7611L17.9934 62.3945L18.03 60.78L17.715 60.345L17.76 56.94L18.675 56.1L19.785 56.13L19.695 58.215L18.045 60.705L17.355 62.985L15.315 67.575L16.245 68.31L27.2636 71.6752L34.8155 73.5844L42.5371 74.9421L47.501 75.6633L51.0224 76.5119L55.9438 78.0816L58.4894 79.6726L59.2319 80.3302L56.0287 78.1665L50.7678 76.4058L47.5752 75.6739L42.325 74.9421L34.37 73.4996L22.8512 70.3812L16.1479 68.2599L16.2751 68.8115L15.9357 69.3206L15.9357 73.6269L15.3842 79.7363L14.76 91.14L14.82 104.4L15.12 109.8L16.47 123.03L16.68 126.75L17.0388 155.764L17.0388 164.674L17.0813 177.402L17.0388 181.729L15.1296 186.778L9.99603 205.743L3.96 222.66L1.44 238.62L0.359987 241.86C4.13999 242.78 8.53999 243.58 13.56 244.26Z"/>
</svg>
